<?xml version="1.0" encoding="UTF-8"?>
<svg id="Layer_1" xmlns="http://www.w3.org/2000/svg" version="1.1" viewBox="0 0 368 128.5">
  <!-- Generator: Adobe Illustrator 29.2.1, SVG Export Plug-In . SVG Version: 2.1.0 Build 116)  -->
  <defs>
    <style>
      .st0 {
        fill: #3b82f6;
      }
    </style>
  </defs>
  <path class="st0" d="M.1,125L20.8,3.2h31.2l24.7,65.1L103,3.2h31.5l18.4,121.9h-31.6l-8.8-70.2h-.3l-29.3,70.2h-12.6l-27.9-70.2h-.3l-10.2,70.2H.1Z"/>
  <path class="st0" d="M245.7,9.9l-12.6,24.6c-6.5-5.4-13.5-8-21-8s-6.5,1-9.3,2.8c-2.9,1.8-4.3,4.3-4.3,7.5s.8,4.1,2.6,5.8,3.5,2.9,5,3.6,3.7,1.4,6.4,2.2l8,2.5c9.5,2.8,16.9,6.8,22.1,11.9s7.9,12.3,7.9,21.4c0,14.8-4.1,25.7-12.6,32.9-9,7.6-20.6,11.5-34.5,11.5s-29.6-4.7-42.8-14l13.5-25.6c9.5,8.4,18.9,12.6,28,12.6s7.7-1.1,10.8-3.2,4.6-5.1,4.6-9.1-6.1-10.1-18.2-13.5c-.4,0-.7-.3-1-.3-5.8-1.7-10.4-3.2-13.7-4.6s-6.6-3.3-9.9-5.9c-3.3-2.5-5.7-5.8-7.2-9.7-1.4-3.9-2.1-8.7-2.1-14.4,0-12.3,3.9-22.1,11.7-29.7,7.9-7.6,18-11.2,30.3-11.2s12.7,1,19.6,2.8,13.1,4.3,18.5,7.3h.1Z"/>
  <path class="st0" d="M310.5,98.2h51.1v26.8h-104.4l57.7-95h-47.8V3.2h100.9l-57.3,95h-.1Z"/>
</svg>