<?xml version="1.0" encoding="UTF-8"?>
<svg id="Layer_1" xmlns="http://www.w3.org/2000/svg" version="1.1" viewBox="0 0 1069.7 210">
  <!-- Generator: Adobe Illustrator 29.2.1, SVG Export Plug-In . SVG Version: 2.1.0 Build 116)  -->
  <defs>
    <style>
      .st0 {
        fill: #fff;
      }

      .st1 {
        fill: #3b82f6;
      }
    </style>
  </defs>
  <path class="st1" d="M806.7,0h158c58,0,105,47,105,105h0c0,58-47,105-105,105h-158c-58,0-105-47-105-105h0c0-58,47-105,105-105h0Z"/>
  <path class="st0" d="M61.5,65.8l-9.1,17.8c-4.7-3.9-9.8-5.8-15.2-5.8s-4.7.7-6.7,2c-2.1,1.3-3.1,3.1-3.1,5.4s.6,3,1.9,4.2c1.3,1.2,2.5,2.1,3.6,2.6,1.1.5,2.7,1,4.6,1.6l5.8,1.8c6.9,2,12.2,4.9,16,8.6,3.8,3.7,5.7,8.9,5.7,15.5,0,10.7-3,18.6-9.1,23.8-6.5,5.5-14.9,8.3-25,8.3S9.6,148.1,0,141.4l9.8-18.5c6.9,6.1,13.7,9.1,20.4,9.1s5.6-.8,7.8-2.3,3.3-3.7,3.3-6.6-4.4-7.3-13.2-9.8c-.3,0-.5-.2-.7-.2-4.2-1.2-7.5-2.3-9.9-3.3-2.4-1-4.8-2.4-7.2-4.3-2.4-1.8-4.1-4.2-5.2-7-1-2.8-1.5-6.3-1.5-10.4,0-8.9,2.8-16,8.5-21.5,5.7-5.4,13-8.1,21.9-8.1s9.2.7,14.2,2,9.5,3.1,13.4,5.3Z"/>
  <path class="st0" d="M126.2,80.3h-27.2v14.7h25.8v19.4h-25.8v15.2h27.2v19.4h-50.2V60.9h50.2v19.4Z"/>
  <path class="st0" d="M175.7,149.1h-35.3V60.9h32.8c17.5,0,26.2,7.6,26.2,22.9s-3.2,14.7-9.7,18v.2c12,1.6,18,9.1,18,22.5s-.9,8.3-2.7,11.6c-1.8,3.3-4.2,5.8-7.3,7.7s-6.4,3.2-10.1,4-7.6,1.3-11.9,1.3h0ZM163.3,78.4v17.1h2.6c3.7,0,6.7-.6,9-1.8,2.3-1.2,3.4-3.4,3.4-6.8s-.4-3.5-1.1-4.7-1.9-2.1-3.3-2.6c-1.5-.5-2.9-.8-4.1-1-1.2-.2-2.9-.2-4.8-.2h-1.6ZM163.3,112.6v19h6.7c.7,0,1.9,0,3.8-.2,1.9-.2,3.2-.4,4.1-.8.9-.4,1.9-.9,3.2-1.6s2.1-1.6,2.6-2.7c.5-1.1.8-2.5.8-4s-.1-2.2-.4-3.2c-.2-.9-.6-1.7-1.2-2.3-.6-.6-1.1-1.2-1.6-1.7-.5-.5-1.2-.9-2.3-1.2s-1.9-.5-2.4-.7c-.6-.2-1.5-.3-2.9-.4s-2.3-.1-2.7-.1h-7.8,0Z"/>
  <path class="st0" d="M273.6,133.8h-31.6l-6.1,15.3h-24.3l33.9-88.2h25l33.2,88.2h-24.5l-5.7-15.3h0ZM267.4,116.2l-9.4-28.1h-.2l-9.5,28.1h19.1Z"/>
  <path class="st0" d="M368.5,65.8l-9.1,17.8c-4.7-3.9-9.8-5.8-15.2-5.8s-4.7.7-6.7,2c-2.1,1.3-3.1,3.1-3.1,5.4s.6,3,1.9,4.2c1.3,1.2,2.5,2.1,3.6,2.6,1.1.5,2.7,1,4.6,1.6l5.9,1.8c6.9,2,12.2,4.9,16,8.6,3.8,3.7,5.7,8.9,5.7,15.5,0,10.7-3,18.6-9.1,23.8-6.5,5.5-14.9,8.3-25,8.3s-21.4-3.4-31-10.1l9.8-18.5c6.9,6.1,13.7,9.1,20.4,9.1s5.6-.8,7.8-2.3,3.3-3.7,3.3-6.6-4.4-7.3-13.2-9.8c-.3,0-.5-.2-.7-.2-4.2-1.2-7.5-2.3-9.9-3.3-2.4-1-4.8-2.4-7.2-4.3-2.4-1.8-4.1-4.2-5.1-7-1-2.8-1.5-6.3-1.5-10.4,0-8.9,2.9-16,8.5-21.5s13-8.1,21.9-8.1,9.2.7,14.2,2,9.5,3.1,13.4,5.3Z"/>
  <path class="st0" d="M418,80.3v68.8h-22.9v-68.8h-19v-19.4h60.8v19.4s-19,0-19,0Z"/>
  <path class="st0" d="M468.2,60.9v88.2h-22.9V60.9h22.9Z"/>
  <path class="st0" d="M537.2,133.8h-31.6l-6.1,15.3h-24.3l33.9-88.2h25l33.2,88.2h-24.5l-5.7-15.3h0ZM531,116.2l-9.4-28.1h-.2l-9.5,28.1h19.1Z"/>
  <path class="st0" d="M574.5,149.1V60.9h22.9l42,53.9h.2v-53.9h22.9v88.2h-22.9l-42-54h-.2v54h-22.9Z"/>
  <g>
    <path d="M752.6,149.1l15-88.2h22.6l17.9,47.1,19-47.1h22.8l13.3,88.2h-22.9l-6.4-50.8h-.2l-21.2,50.8h-9.1l-20.2-50.8h-.2l-7.4,50.8h-22.8Z"/>
    <path d="M930.4,65.8l-9.1,17.8c-4.7-3.9-9.8-5.8-15.2-5.8s-4.7.7-6.7,2c-2.1,1.3-3.1,3.1-3.1,5.4s.6,3,1.9,4.2,2.5,2.1,3.6,2.6c1.1.5,2.7,1,4.6,1.6l5.8,1.8c6.9,2,12.2,4.9,16,8.6,3.8,3.7,5.7,8.9,5.7,15.5,0,10.7-3,18.6-9.1,23.8-6.5,5.5-14.9,8.3-25,8.3s-21.4-3.4-31-10.1l9.8-18.5c6.9,6.1,13.7,9.1,20.3,9.1s5.6-.8,7.8-2.3,3.3-3.7,3.3-6.6-4.4-7.3-13.2-9.8c-.3,0-.5-.2-.7-.2-4.2-1.2-7.5-2.3-9.9-3.3-2.4-1-4.8-2.4-7.2-4.3-2.4-1.8-4.1-4.2-5.2-7-1-2.8-1.5-6.3-1.5-10.4,0-8.9,2.8-16,8.5-21.5s13-8.1,21.9-8.1,9.2.7,14.2,2,9.5,3.1,13.4,5.3Z"/>
    <path d="M977.3,129.7h37v19.4h-75.6l41.8-68.8h-34.6v-19.4h73l-41.5,68.8h0Z"/>
  </g>
</svg>